<?xml version="1.0" encoding="UTF-8"?>
<svg id="Layer_2" data-name="Layer 2" xmlns="http://www.w3.org/2000/svg" viewBox="0 0 53.57 152.4">
  <defs>
    <style>
      .cls-1, .cls-2 {
        fill: #fff;
      }

      .cls-3 {
        font-family: Roboto-MediumItalic, Roboto;
        font-size: 16.03px;
        font-style: italic;
        font-weight: 500;
      }

      .cls-3, .cls-4 {
        fill: #006d77;
      }

      .cls-5, .cls-6 {
        fill: #83c5be;
      }

      .cls-7 {
        fill: none;
        stroke: #fff;
        stroke-linecap: round;
        stroke-width: 2px;
      }

      .cls-7, .cls-6 {
        stroke-linejoin: round;
      }

      .cls-6 {
        stroke: #006d77;
        stroke-width: 5px;
      }

      .cls-2 {
        font-family: Roboto-Bold, Roboto;
        font-size: 36px;
        font-weight: 700;
      }
    </style>
  </defs>
  <g id="Layer_1-2" data-name="Layer 1">
    <g>
      <path class="cls-6" d="m51,122.19c0,23.58-10.83,22.77-24.2,22.77s-24.2.81-24.2-22.77,18.5-42.7,24.2-42.7,24.2,19.12,24.2,42.7Z"/>
      <rect class="cls-5" x="32.14" y="96.08" width="23.77" height="7.83" rx="3.91" ry="3.91" transform="translate(-57.81 60.42) rotate(-45)"/>
      <rect class="cls-5" x="-2.33" y="97.45" width="23.77" height="7.83" rx="3.91" ry="3.91" transform="translate(-55.37 179.8) rotate(-135)"/>
      <path class="cls-5" d="m22.18,148.17c0,2.75-2.23,3.56-4.98,3.56s-4.98-.81-4.98-3.56,2.23-7.83,4.98-7.83,4.98,5.08,4.98,7.83Z"/>
      <path class="cls-5" d="m40.8,148.84c0,2.75-2.23,3.56-4.98,3.56s-4.98-.81-4.98-3.56,2.23-7.83,4.98-7.83,4.98,5.08,4.98,7.83Z"/>
      <circle class="cls-5" cx="26.8" cy="65.97" r="18.86"/>
      <circle class="cls-1" cx="20.4" cy="61.7" r="1.78"/>
      <circle class="cls-1" cx="32.5" cy="61.7" r="1.78"/>
      <path class="cls-7" d="m19.33,71.31c1.62,3.29,5.02,5.27,8.54,4.98,4.81-.39,7.02-4.79,7.12-4.98"/>
    </g>
    <text class="cls-3" transform="translate(2.31 13.71)"><tspan x="0" y="0">Timmy</tspan></text>
    <path class="cls-4" d="m32.99,27.35c.51,4.11-6.21,15.36-6.21,15.36,0,0-6.72-11.25-6.21-15.36.32-2.61,6.21-8.49,6.21-8.49,0,0,5.88,5.88,6.21,8.49Z"/>
    <text class="cls-2" transform="translate(15.18 131.11)"><tspan x="0" y="0">P</tspan></text>
  </g>
</svg>