<?xml version="1.0" encoding="UTF-8"?>
<svg id="Layer_2" data-name="Layer 2" xmlns="http://www.w3.org/2000/svg" viewBox="0 0 261 173.7">
  <defs>
    <style>
      .cls-1 {
        letter-spacing: 0em;
      }

      .cls-2 {
        fill: #ff7bac;
      }

      .cls-3 {
        font-family: SourceSerifPro-Bold, 'Source Serif Pro';
        font-size: 30px;
        font-weight: 700;
      }

      .cls-4 {
        fill: none;
        stroke: #000;
        stroke-miterlimit: 10;
        stroke-width: 2px;
      }
    </style>
  </defs>
  <g id="Layer_1-2" data-name="Layer 1">
    <g>
      <circle class="cls-2" cx="16.5" cy="157.2" r="16.5"/>
      <circle class="cls-2" cx="99.5" cy="157.2" r="16.5"/>
      <text class="cls-3" transform="translate(8.4 159.95)"><tspan x="0" y="0">&lt;</tspan><tspan class="cls-1" x="16.32" y="0">h</tspan><tspan x="34.68" y="0">tml&gt;</tspan></text>
      <path class="cls-4" d="m37.71,125.81c2.97-.13,6.12-.3,9.29-.31-1.67-4.3-5.83-7.35-10.72-7.35-5.19,0-9.58,3.44-11.01,8.17,4.13-.2,8.27-.33,12.43-.51Z"/>
      <path class="cls-4" d="m77.89,126.93c2.94.43,6.06.86,9.18,1.45-.82-4.54-4.33-8.32-9.13-9.25-5.1-.98-10.06,1.57-12.35,5.94,4.09.59,8.18,1.24,12.3,1.85Z"/>
      <circle class="cls-2" cx="150.5" cy="156.2" r="16.5"/>
      <circle class="cls-2" cx="244.5" cy="156.2" r="16.5"/>
      <text class="cls-3" transform="translate(142.4 158.95)"><tspan x="0" y="0">&lt;/</tspan><tspan class="cls-1" x="27.93" y="0">h</tspan><tspan x="46.29" y="0">tml&gt;</tspan></text>
      <path class="cls-4" d="m177.71,124.9c2.97-.11,6.12-.24,9.29-.25-1.67-3.48-5.83-5.96-10.72-5.96-5.19,0-9.58,2.79-11.01,6.62,4.13-.16,8.27-.26,12.43-.41Z"/>
      <path class="cls-4" d="m217.86,126.09c2.93.48,6.04.96,9.16,1.55-1.09-3.14-4.79-5.94-9.59-6.87-5.1-.98-9.84.45-11.84,3.3,4.08.65,8.16,1.35,12.27,2.02Z"/>
      <line class="cls-4" x1="170" y1="119.7" x2="164" y2="116.7"/>
      <line class="cls-4" x1="176" y1="118.7" x2="171" y2="115.7"/>
      <line class="cls-4" x1="182.15" y1="119.73" x2="179" y2="114.7"/>
      <line class="cls-4" x1="225.02" y1="124.32" x2="230" y2="123.7"/>
      <line class="cls-4" x1="221" y1="121.7" x2="226" y2="119.7"/>
      <line class="cls-4" x1="213" y1="120.7" x2="219" y2="116.7"/>
      <path class="cls-2" d="m125.99,96.35l-32.63-22.42c-2.49-1.34-4.55-3.65-5.59-6.63-2.12-6.02.68-12.48,6.24-14.44,3.33-1.17,6.9-.46,9.66,1.6.91-2.82,3.09-5.2,6.1-6.26,5.13-1.8,10.76.91,12.58,6.08.14.4.26.8.34,1.21l3.31,40.87Z"/>
      <path class="cls-2" d="m129.51,96.39l7.19-6.81c.54-.42,1.01-1.09,1.3-1.91.57-1.66.15-3.31-.94-3.68-.65-.23-1.4.06-2.01.68-.12-.73-.51-1.31-1.1-1.51-1.01-.35-2.22.52-2.71,1.94-.04.11-.07.22-.1.33l-1.62,10.97Z"/>
      <path class="cls-2" d="m140.4,88.2l3.96-.72c.29-.02.56-.15.74-.38.35-.47.19-1.19-.36-1.6-.33-.25-.73-.33-1.07-.26-.04-.3-.22-.61-.52-.84-.51-.38-1.17-.37-1.47.04-.02.03-.04.06-.06.1l-1.22,3.66Z"/>
      <text class="cls-3" transform="translate(50.47 44.24) rotate(-30.69)"><tspan x="0" y="0">P</tspan></text>
      <text class="cls-3" transform="translate(65.31 35.43) rotate(-22.03)"><tspan x="0" y="0">a</tspan></text>
      <text class="cls-3" transform="translate(79.58 29.82) rotate(-15.27)"><tspan x="0" y="0">i</tspan></text>
      <text class="cls-3" transform="translate(88.16 27.32) rotate(-8.91)"><tspan x="0" y="0">r</tspan></text>
      <text class="cls-3" transform="translate(100.77 25.2) rotate(-1.08)"><tspan x="0" y="0">e</tspan></text>
      <text class="cls-3" transform="translate(115.67 24.78) rotate(7.92)"><tspan x="0" y="0">d</tspan></text>
      <text class="cls-3" transform="translate(132.73 27.45) rotate(14.26)"><tspan x="0" y="0"> </tspan></text>
      <text class="cls-3" transform="translate(138.36 28.48) rotate(20.65)"><tspan x="0" y="0">T</tspan></text>
      <text class="cls-3" transform="translate(153.84 34.25) rotate(28.39)"><tspan x="0" y="0">a</tspan></text>
      <text class="cls-3" transform="translate(167.16 41.37) rotate(36.07)"><tspan x="0" y="0">g</tspan></text>
    </g>
  </g>
</svg>