<?xml version="1.0" encoding="UTF-8"?>
<svg id="Layer_2" data-name="Layer 2" xmlns="http://www.w3.org/2000/svg" viewBox="0 0 307.33 423">
  <defs>
    <style>
      .cls-1 {
        font-size: 78px;
        glyph-orientation-vertical: 0deg;
        text-orientation: upright;
        writing-mode: tb;
      }

      .cls-1, .cls-2, .cls-3, .cls-4, .cls-5, .cls-6 {
        font-family: SourceSerifPro-Bold, 'Source Serif Pro';
        font-weight: 700;
      }

      .cls-2, .cls-3, .cls-4, .cls-5, .cls-6 {
        font-size: 14px;
      }

      .cls-2, .cls-7 {
        fill: #edf6f9;
      }

      .cls-3, .cls-8 {
        fill: #ffddd2;
      }

      .cls-4, .cls-9 {
        fill: #83c5be;
      }

      .cls-5, .cls-10 {
        fill: #e29578;
      }

      .cls-6, .cls-11 {
        fill: #006d77;
      }

      .cls-12 {
        fill: none;
        stroke: #006d77;
        stroke-linecap: round;
        stroke-miterlimit: 10;
        stroke-width: 5px;
      }
    </style>
  </defs>
  <g id="Layer_1-2" data-name="Layer 1">
    <g>
      <text class="cls-1" transform="translate(39 16.5)"><tspan class="cls-11" x="0" y="0">S</tspan><tspan class="cls-9" x="0" y="78">c</tspan><tspan class="cls-7" x="0" y="156">o</tspan><tspan class="cls-8" x="0" y="234">p</tspan><tspan class="cls-10" x="0" y="312">e</tspan></text>
      <g>
        <path class="cls-11" d="m98.05,60.2v-2.16h6.22v2.16h-6.22Z"/>
        <path class="cls-11" d="m115.88,50.74v-1.3h12.41l.17,4.13h-1.99l-.48-2.78h-4.18c-.02.91-.03,1.83-.04,2.76,0,.93-.01,1.86-.01,2.81h2.66l.29-1.87h1.39v5.4h-1.39l-.31-2.11h-2.64c0,1.07,0,2.09.01,3.06,0,.97.02,1.92.04,2.87l2.14.22v1.3h-8.06v-1.3l1.8-.19c.03-.98.05-1.96.05-2.95v-6.88c0-1-.02-1.99-.05-2.96l-1.8-.19Z"/>
        <path class="cls-11" d="m129.15,65.21v-1.13l1.3-.29c.02-.58.02-1.2.02-1.87v-2.9c0-.66,0-1.2-.01-1.64,0-.44-.03-.9-.06-1.38l-1.49-.22v-.94l5.04-1.61.41.26-.07,3.48v4.96c0,.68,0,1.32.02,1.91l1.2.24v1.13h-6.36Zm3.19-13.75c-.56,0-1.04-.18-1.44-.54-.4-.36-.6-.81-.6-1.36s.2-1.02.6-1.38c.4-.36.88-.54,1.44-.54s1.04.18,1.44.54c.4.36.6.82.6,1.38s-.2,1-.6,1.36c-.4.36-.88.54-1.44.54Z"/>
        <path class="cls-11" d="m136.66,65.21v-1.13l1.32-.26c.02-.59.02-1.22.02-1.9v-3.17c0-.45,0-.82-.01-1.1,0-.29-.02-.56-.02-.8,0-.25-.02-.53-.04-.85l-1.46-.22v-.94l4.73-1.61.43.26.22,2.83c.34-1.02.81-1.8,1.42-2.32.61-.52,1.21-.78,1.8-.78.53,0,.98.15,1.37.44.38.3.62.74.72,1.33-.02.62-.18,1.11-.5,1.45-.32.34-.72.52-1.2.52-.67,0-1.29-.38-1.85-1.13l-.14-.19c-.35.34-.68.76-.97,1.27s-.51,1.05-.64,1.61v3.34c0,.64,0,1.24.02,1.8l1.9.41v1.13h-7.1Z"/>
        <path class="cls-11" d="m151.83,65.57c-1.52,0-2.91-.37-4.18-1.1l.07-2.93h1.92l.41,2.38c.29.11.58.2.86.25s.6.08.94.08c.69,0,1.22-.12,1.58-.35.37-.23.55-.59.55-1.07,0-.37-.14-.69-.41-.96-.27-.27-.81-.52-1.61-.74l-1.3-.38c-.93-.27-1.64-.71-2.15-1.32-.5-.61-.76-1.36-.76-2.26,0-1.1.43-2.04,1.3-2.8.86-.76,2.1-1.14,3.72-1.14.7,0,1.36.08,1.96.25.6.17,1.21.41,1.84.73l-.17,2.62h-1.92l-.48-2.06c-.34-.13-.78-.19-1.32-.19s-.98.11-1.31.34c-.33.22-.49.56-.49,1.01,0,.32.13.6.38.85s.8.5,1.63.76l1.18.34c1.14.34,1.95.82,2.45,1.44s.74,1.38.74,2.28c0,1.26-.48,2.24-1.45,2.94-.97.7-2.3,1.04-4,1.04Z"/>
        <path class="cls-11" d="m163.09,65.57c-1.07,0-1.91-.26-2.52-.78-.61-.52-.91-1.37-.91-2.56,0-.42,0-.8.01-1.16,0-.36.01-.77.01-1.24v-4.58h-1.56v-1.42l1.78-.24,1.2-3.36h2.45l-.05,3.38h2.52v1.63h-2.52v6.72c0,.56.12.97.35,1.24.23.26.52.4.88.4.42,0,.85-.18,1.3-.53l.6.58c-.32.61-.76,1.08-1.33,1.42-.57.34-1.3.5-2.2.5Z"/>
        <path class="cls-11" d="m172.37,50.74v-1.3h7.92v1.3l-1.99.19c-.02.98-.03,1.96-.04,2.96s-.01,2-.01,2.99v1.27c0,.86,0,1.78.01,2.75,0,.97.02,1.95.04,2.94h4.15l.65-3.34h1.94l-.24,4.7h-12.43v-1.3l1.8-.19c.03-.98.05-1.93.05-2.87v-6.96c0-1-.02-1.99-.05-2.96l-1.8-.19Z"/>
        <path class="cls-11" d="m195.46,65.55c-1.39,0-2.27-.58-2.64-1.73-.51.54-1,.97-1.48,1.28s-1.12.47-1.96.47c-.93,0-1.68-.26-2.27-.79-.58-.53-.88-1.29-.88-2.28,0-.58.13-1.1.38-1.56.26-.46.72-.9,1.39-1.3.67-.4,1.62-.78,2.86-1.13.24-.08.52-.16.84-.24s.65-.16.98-.24v-.79c0-1.07-.13-1.8-.4-2.18-.26-.38-.78-.58-1.55-.58h-.31c-.1,0-.21,0-.34.02l-.12,1.06c-.02.78-.2,1.35-.54,1.7-.34.35-.75.53-1.21.53-.88,0-1.42-.4-1.61-1.2.06-.99.57-1.8,1.51-2.42s2.28-.94,4.01-.94c1.54,0,2.64.35,3.3,1.06.66.7,1,1.86,1,3.48v5.38c0,.46.18.7.53.7.13,0,.25-.04.36-.11.11-.07.23-.21.36-.42l.65.43c-.29.64-.66,1.1-1.12,1.38s-1.04.42-1.76.42Zm-5.66-3.67c0,.59.14,1.03.42,1.32s.62.43,1.02.43c.18,0,.36-.04.55-.12.19-.08.5-.26.91-.55v-3.89c-.21.06-.41.13-.61.2-.2.07-.37.14-.52.2-.54.22-.98.54-1.3.95-.32.41-.48.89-.48,1.45Z"/>
        <path class="cls-11" d="m206.05,54.65v-1.03h4.51v1.03l-1.37.24-4.37,11.3c-.59,1.54-1.21,2.7-1.85,3.5-.64.8-1.52,1.2-2.64,1.2-.64,0-1.2-.18-1.69-.53-.49-.35-.75-.78-.78-1.27.1-.53.33-.92.71-1.18.38-.26.79-.38,1.26-.38.32,0,.66.07,1.03.2.37.14.71.44,1.03.92l.17.24c.7-.75,1.25-1.67,1.63-2.76v-.02l-4.78-11.28-1.13-.19v-1.03h6.82v1.03l-1.61.29,2.35,6.48,2.28-6.48-1.58-.29Z"/>
        <path class="cls-11" d="m216.68,65.57c-1.17,0-2.2-.24-3.1-.73-.9-.49-1.6-1.19-2.11-2.11s-.77-2.02-.77-3.3c0-1.34.3-2.48.9-3.4.6-.92,1.37-1.62,2.32-2.09s1.93-.71,2.95-.71,1.96.22,2.7.67c.74.45,1.31,1.05,1.69,1.81.38.76.58,1.63.58,2.6,0,.46-.05.89-.14,1.27h-6.94c.08,1.26.43,2.2,1.04,2.8.62.6,1.34.9,2.17.9.66,0,1.22-.12,1.68-.37.46-.25.87-.56,1.22-.92l.84.77c-.5.94-1.17,1.65-2.02,2.11-.85.46-1.86.7-3.02.7Zm-.05-11.09c-.45,0-.86.28-1.24.83-.38.55-.59,1.56-.64,3.04h2.04c.58,0,.96-.12,1.16-.35s.3-.62.3-1.16c0-.8-.16-1.39-.48-1.78-.32-.38-.71-.58-1.15-.58Z"/>
        <path class="cls-11" d="m223.16,65.21v-1.13l1.32-.26c.02-.59.02-1.22.02-1.9v-3.17c0-.45,0-.82-.01-1.1,0-.29-.02-.56-.02-.8,0-.25-.02-.53-.04-.85l-1.46-.22v-.94l4.73-1.61.43.26.22,2.83c.34-1.02.81-1.8,1.42-2.32.61-.52,1.21-.78,1.8-.78.53,0,.98.15,1.37.44.38.3.62.74.72,1.33-.02.62-.18,1.11-.5,1.45-.32.34-.72.52-1.2.52-.67,0-1.29-.38-1.85-1.13l-.14-.19c-.35.34-.68.76-.97,1.27s-.51,1.05-.64,1.61v3.34c0,.64,0,1.24.02,1.8l1.9.41v1.13h-7.1Z"/>
      </g>
      <g>
        <path class="cls-11" d="m83.61,145.7v-2.16h6.22v2.16h-6.22Z"/>
        <path class="cls-11" d="m106.67,151.17c-.9,0-1.82-.1-2.76-.31-.94-.21-1.76-.53-2.45-.96l.14-3.55h2.23l.48,2.95c.37.14.74.25,1.1.32.37.07.78.11,1.22.11.86,0,1.52-.22,1.97-.66.45-.44.67-.98.67-1.62s-.16-1.14-.49-1.49c-.33-.35-.85-.69-1.57-1.01l-1.03-.46c-1.41-.66-2.5-1.38-3.28-2.18-.78-.8-1.16-1.86-1.16-3.19,0-1.44.54-2.57,1.62-3.4s2.52-1.24,4.33-1.24c.86,0,1.69.11,2.48.32.79.22,1.48.52,2.05.9l-.19,3.36h-2.21l-.46-2.83c-.26-.1-.51-.17-.77-.23-.26-.06-.54-.08-.84-.08-.69,0-1.27.2-1.75.6-.48.4-.72.93-.72,1.58s.19,1.15.56,1.52c.38.38.92.72,1.62,1.04l1.13.5c1.52.69,2.62,1.41,3.3,2.17.68.76,1.02,1.75,1.02,2.96,0,1.41-.53,2.57-1.6,3.48-1.06.91-2.62,1.37-4.67,1.37Z"/>
        <path class="cls-11" d="m120.31,151.07c-1.17,0-2.2-.24-3.1-.73-.9-.49-1.6-1.19-2.11-2.11s-.77-2.02-.77-3.3c0-1.34.3-2.48.9-3.4.6-.92,1.37-1.62,2.32-2.09s1.93-.71,2.95-.71,1.96.22,2.7.67c.74.45,1.31,1.05,1.69,1.81.38.76.58,1.63.58,2.6,0,.46-.05.89-.14,1.27h-6.94c.08,1.26.43,2.2,1.04,2.8.62.6,1.34.9,2.17.9.66,0,1.22-.12,1.68-.37.46-.25.87-.56,1.22-.92l.84.77c-.5.94-1.17,1.65-2.02,2.11-.85.46-1.86.7-3.02.7Zm-.05-11.09c-.45,0-.86.28-1.24.83-.38.55-.59,1.56-.64,3.04h2.04c.58,0,.96-.12,1.16-.35s.3-.62.3-1.16c0-.8-.16-1.39-.48-1.78-.32-.38-.71-.58-1.15-.58Z"/>
        <path class="cls-11" d="m132.79,151.07c-1.09,0-2.08-.23-2.99-.68-.9-.46-1.63-1.14-2.17-2.05s-.82-2.04-.82-3.38.29-2.43.88-3.36c.58-.93,1.37-1.64,2.35-2.12.98-.49,2.07-.73,3.25-.73.85,0,1.6.16,2.26.48.66.32,1.18.74,1.57,1.27.39.53.61,1.11.66,1.75-.26.83-.8,1.25-1.63,1.25-.46,0-.87-.17-1.22-.5-.35-.34-.55-.93-.6-1.78l-.17-1.2c-.06-.02-.14-.02-.22-.02h-.24c-.45,0-.9.15-1.34.46-.45.3-.82.78-1.1,1.44-.29.66-.43,1.53-.43,2.62,0,1.38.31,2.44.92,3.18.62.74,1.43,1.12,2.44,1.12.58,0,1.08-.12,1.51-.37.43-.25.82-.57,1.18-.97l.84.74c-.46.98-1.12,1.7-1.96,2.17s-1.83.71-2.96.71Z"/>
        <path class="cls-11" d="m145.07,151.07c-1.25,0-2.33-.26-3.24-.78-.91-.52-1.62-1.25-2.11-2.18-.5-.94-.74-2.02-.74-3.25s.27-2.3.8-3.22c.54-.91,1.27-1.62,2.2-2.14.93-.51,1.96-.77,3.1-.77s2.16.25,3.08.74c.92.5,1.65,1.2,2.2,2.12s.82,2,.82,3.25-.25,2.34-.74,3.26-1.2,1.65-2.11,2.17c-.91.52-1.99.78-3.24.78Zm0-1.25c.67,0,1.18-.39,1.51-1.18.34-.78.5-2.02.5-3.72s-.17-2.96-.5-3.74c-.34-.78-.84-1.18-1.51-1.18s-1.2.39-1.54,1.18c-.34.78-.5,2.03-.5,3.74s.17,2.94.5,3.72c.34.78.85,1.18,1.54,1.18Z"/>
        <path class="cls-11" d="m152.51,150.71v-1.13l1.3-.29c.02-.58.02-1.2.02-1.87v-3.14c0-.66,0-1.16-.01-1.52,0-.36-.03-.78-.06-1.26l-1.46-.22v-.94l4.73-1.61.43.26.14,1.73c.62-.74,1.24-1.25,1.86-1.55.62-.3,1.28-.44,1.98-.44,1.04,0,1.88.34,2.51,1.03.63.69.95,1.72.95,3.1v4.6c0,.66,0,1.29.02,1.88l1.2.24v1.13h-6.34v-1.13l1.25-.26c.02-.59.02-1.22.02-1.88v-4.28c0-.77-.1-1.31-.31-1.62-.21-.31-.54-.47-1.01-.47-.62,0-1.31.29-2.06.86v5.51c0,.68,0,1.32.02,1.91l1.13.24v1.13h-6.31Z"/>
        <path class="cls-11" d="m175.67,150.98l-.19-1.37c-.93.98-2.06,1.46-3.38,1.46-.9,0-1.71-.23-2.44-.7-.73-.46-1.3-1.15-1.72-2.05-.42-.9-.62-2-.62-3.3s.25-2.44.76-3.37,1.16-1.66,1.97-2.16c.81-.5,1.66-.76,2.56-.76.62,0,1.17.11,1.63.32.46.22.89.53,1.27.95v-4.39l-1.68-.24v-1.01l5.06-1.08.38.24-.1,3.36v12.46l1.18.24v1.13l-4.68.26Zm-4.3-6c0,1.31.23,2.31.7,2.99.46.68,1.06,1.02,1.8,1.02.54,0,1.04-.18,1.49-.55v-7.15c-.43-.34-.9-.5-1.42-.5-.74,0-1.35.34-1.84,1.03-.49.69-.73,1.74-.73,3.17Z"/>
        <path class="cls-11" d="m186.81,136.24v-1.3h7.92v1.3l-1.99.19c-.02.98-.03,1.96-.04,2.96s-.01,2-.01,2.99v1.27c0,.86,0,1.78.01,2.75,0,.97.02,1.95.04,2.94h4.15l.65-3.34h1.94l-.24,4.7h-12.43v-1.3l1.8-.19c.03-.98.05-1.93.05-2.87v-6.96c0-1-.02-1.99-.05-2.96l-1.8-.19Z"/>
        <path class="cls-11" d="m209.9,151.05c-1.39,0-2.27-.58-2.64-1.73-.51.54-1,.97-1.48,1.28s-1.12.47-1.96.47c-.93,0-1.68-.26-2.27-.79-.58-.53-.88-1.29-.88-2.28,0-.58.13-1.1.38-1.56.26-.46.72-.9,1.39-1.3.67-.4,1.62-.78,2.86-1.13.24-.08.52-.16.84-.24s.65-.16.98-.24v-.79c0-1.07-.13-1.8-.4-2.18-.26-.38-.78-.58-1.55-.58h-.31c-.1,0-.21,0-.34.02l-.12,1.06c-.02.78-.2,1.35-.54,1.7-.34.35-.75.53-1.21.53-.88,0-1.42-.4-1.61-1.2.06-.99.57-1.8,1.51-2.42s2.28-.94,4.01-.94c1.54,0,2.64.35,3.3,1.06.66.7,1,1.86,1,3.48v5.38c0,.46.18.7.53.7.13,0,.25-.04.36-.11.11-.07.23-.21.36-.42l.65.43c-.29.64-.66,1.1-1.12,1.38s-1.04.42-1.76.42Zm-5.66-3.67c0,.59.14,1.03.42,1.32s.62.43,1.02.43c.18,0,.36-.04.55-.12.19-.08.5-.26.91-.55v-3.89c-.21.06-.41.13-.61.2-.2.07-.37.14-.52.2-.54.22-.98.54-1.3.95-.32.41-.48.89-.48,1.45Z"/>
        <path class="cls-11" d="m220.48,140.15v-1.03h4.51v1.03l-1.37.24-4.37,11.3c-.59,1.54-1.21,2.7-1.85,3.5-.64.8-1.52,1.2-2.64,1.2-.64,0-1.2-.18-1.69-.53-.49-.35-.75-.78-.78-1.27.1-.53.33-.92.71-1.18.38-.26.79-.38,1.26-.38.32,0,.66.07,1.03.2.37.14.71.44,1.03.92l.17.24c.7-.75,1.25-1.67,1.63-2.76v-.02l-4.78-11.28-1.13-.19v-1.03h6.82v1.03l-1.61.29,2.35,6.48,2.28-6.48-1.58-.29Z"/>
        <path class="cls-11" d="m231.11,151.07c-1.17,0-2.2-.24-3.1-.73-.9-.49-1.6-1.19-2.11-2.11s-.77-2.02-.77-3.3c0-1.34.3-2.48.9-3.4.6-.92,1.37-1.62,2.32-2.09s1.93-.71,2.95-.71,1.96.22,2.7.67c.74.45,1.31,1.05,1.69,1.81.38.76.58,1.63.58,2.6,0,.46-.05.89-.14,1.27h-6.94c.08,1.26.43,2.2,1.04,2.8.62.6,1.34.9,2.17.9.66,0,1.22-.12,1.68-.37.46-.25.87-.56,1.22-.92l.84.77c-.5.94-1.17,1.65-2.02,2.11-.85.46-1.86.7-3.02.7Zm-.05-11.09c-.45,0-.86.28-1.24.83-.38.55-.59,1.56-.64,3.04h2.04c.58,0,.96-.12,1.16-.35s.3-.62.3-1.16c0-.8-.16-1.39-.48-1.78-.32-.38-.71-.58-1.15-.58Z"/>
        <path class="cls-11" d="m237.59,150.71v-1.13l1.32-.26c.02-.59.02-1.22.02-1.9v-3.17c0-.45,0-.82-.01-1.1,0-.29-.02-.56-.02-.8,0-.25-.02-.53-.04-.85l-1.46-.22v-.94l4.73-1.61.43.26.22,2.83c.34-1.02.81-1.8,1.42-2.32.61-.52,1.21-.78,1.8-.78.53,0,.98.15,1.37.44.38.3.62.74.72,1.33-.02.62-.18,1.11-.5,1.45-.32.34-.72.52-1.2.52-.67,0-1.29-.38-1.85-1.13l-.14-.19c-.35.34-.68.76-.97,1.27s-.51,1.05-.64,1.61v3.34c0,.64,0,1.24.02,1.8l1.9.41v1.13h-7.1Z"/>
      </g>
      <g>
        <path class="cls-11" d="m92.42,223.2v-2.16h6.22v2.16h-6.22Z"/>
        <path class="cls-11" d="m109.94,216.91l.1-4.46h14.09l.07,4.46h-1.99l-.43-3.12h-2.64c-.02.99-.03,2-.04,3.01,0,1.02-.01,2.04-.01,3.08v.86c0,.99,0,1.98.01,2.98s.02,1.98.04,2.98l2.06.22v1.3h-8.23v-1.3l2.04-.22c.03-.98.05-1.96.05-2.95v-6.9c0-1.02-.02-2.04-.05-3.06h-2.62l-.46,3.12h-1.99Z"/>
        <path class="cls-11" d="m125.35,228.21v-1.13l1.3-.29c.02-.58.02-1.2.02-1.87v-11.81l-1.49-.24v-1.01l4.97-1.08.38.24-.1,3.36v3.86c.64-.75,1.26-1.28,1.86-1.57.6-.3,1.25-.44,1.96-.44,1.06,0,1.9.34,2.54,1.03.64.69.96,1.72.96,3.1v4.6c0,.66,0,1.29.02,1.88l1.2.24v1.13h-6.31v-1.13l1.25-.26c.02-.59.02-1.22.02-1.88v-4.28c0-.78-.09-1.33-.28-1.63-.18-.3-.52-.46-1.02-.46-.32,0-.66.1-1.03.29s-.74.46-1.1.82v5.27c0,.68,0,1.32.02,1.91l1.13.24v1.13h-6.31Z"/>
        <path class="cls-11" d="m140.2,228.21v-1.13l1.3-.29c.02-.58.02-1.2.02-1.87v-2.9c0-.66,0-1.2-.01-1.64,0-.44-.03-.9-.06-1.38l-1.49-.22v-.94l5.04-1.61.41.26-.07,3.48v4.96c0,.68,0,1.32.02,1.91l1.2.24v1.13h-6.36Zm3.19-13.75c-.56,0-1.04-.18-1.44-.54-.4-.36-.6-.81-.6-1.36s.2-1.02.6-1.38c.4-.36.88-.54,1.44-.54s1.04.18,1.44.54c.4.36.6.82.6,1.38s-.2,1-.6,1.36c-.4.36-.88.54-1.44.54Z"/>
        <path class="cls-11" d="m147.71,228.21v-1.13l1.32-.26c.02-.59.02-1.22.02-1.9v-3.17c0-.45,0-.82-.01-1.1,0-.29-.02-.56-.02-.8,0-.25-.02-.53-.04-.85l-1.46-.22v-.94l4.73-1.61.43.26.22,2.83c.34-1.02.81-1.8,1.42-2.32.61-.52,1.21-.78,1.8-.78.53,0,.98.15,1.37.44.38.3.62.74.72,1.33-.02.62-.18,1.11-.5,1.45-.32.34-.72.52-1.2.52-.67,0-1.29-.38-1.85-1.13l-.14-.19c-.35.34-.68.76-.97,1.27s-.51,1.05-.64,1.61v3.34c0,.64,0,1.24.02,1.8l1.9.41v1.13h-7.1Z"/>
        <path class="cls-11" d="m166.87,228.48l-.19-1.37c-.93.98-2.06,1.46-3.38,1.46-.9,0-1.71-.23-2.44-.7-.73-.46-1.3-1.15-1.72-2.05-.42-.9-.62-2-.62-3.3s.25-2.44.76-3.37,1.16-1.66,1.97-2.16c.81-.5,1.66-.76,2.56-.76.62,0,1.17.11,1.63.32.46.22.89.53,1.27.95v-4.39l-1.68-.24v-1.01l5.06-1.08.38.24-.1,3.36v12.46l1.18.24v1.13l-4.68.26Zm-4.3-6c0,1.31.23,2.31.7,2.99.46.68,1.06,1.02,1.8,1.02.54,0,1.04-.18,1.49-.55v-7.15c-.43-.34-.9-.5-1.42-.5-.74,0-1.35.34-1.84,1.03-.49.69-.73,1.74-.73,3.17Z"/>
        <path class="cls-11" d="m178,213.74v-1.3h7.92v1.3l-1.99.19c-.02.98-.03,1.96-.04,2.96s-.01,2-.01,2.99v1.27c0,.86,0,1.78.01,2.75,0,.97.02,1.95.04,2.94h4.15l.65-3.34h1.94l-.24,4.7h-12.43v-1.3l1.8-.19c.03-.98.05-1.93.05-2.87v-6.96c0-1-.02-1.99-.05-2.96l-1.8-.19Z"/>
        <path class="cls-11" d="m201.09,228.55c-1.39,0-2.27-.58-2.64-1.73-.51.54-1,.97-1.48,1.28s-1.12.47-1.96.47c-.93,0-1.68-.26-2.27-.79-.58-.53-.88-1.29-.88-2.28,0-.58.13-1.1.38-1.56.26-.46.72-.9,1.39-1.3.67-.4,1.62-.78,2.86-1.13.24-.08.52-.16.84-.24s.65-.16.98-.24v-.79c0-1.07-.13-1.8-.4-2.18-.26-.38-.78-.58-1.55-.58h-.31c-.1,0-.21,0-.34.02l-.12,1.06c-.02.78-.2,1.35-.54,1.7-.34.35-.75.53-1.21.53-.88,0-1.42-.4-1.61-1.2.06-.99.57-1.8,1.51-2.42s2.28-.94,4.01-.94c1.54,0,2.64.35,3.3,1.06.66.7,1,1.86,1,3.48v5.38c0,.46.18.7.53.7.13,0,.25-.04.36-.11.11-.07.23-.21.36-.42l.65.43c-.29.64-.66,1.1-1.12,1.38s-1.04.42-1.76.42Zm-5.66-3.67c0,.59.14,1.03.42,1.32s.62.43,1.02.43c.18,0,.36-.04.55-.12.19-.08.5-.26.91-.55v-3.89c-.21.06-.41.13-.61.2-.2.07-.37.14-.52.2-.54.22-.98.54-1.3.95-.32.41-.48.89-.48,1.45Z"/>
        <path class="cls-11" d="m211.67,217.65v-1.03h4.51v1.03l-1.37.24-4.37,11.3c-.59,1.54-1.21,2.7-1.85,3.5-.64.8-1.52,1.2-2.64,1.2-.64,0-1.2-.18-1.69-.53-.49-.35-.75-.78-.78-1.27.1-.53.33-.92.71-1.18.38-.26.79-.38,1.26-.38.32,0,.66.07,1.03.2.37.14.71.44,1.03.92l.17.24c.7-.75,1.25-1.67,1.63-2.76v-.02l-4.78-11.28-1.13-.19v-1.03h6.82v1.03l-1.61.29,2.35,6.48,2.28-6.48-1.58-.29Z"/>
        <path class="cls-11" d="m222.31,228.57c-1.17,0-2.2-.24-3.1-.73-.9-.49-1.6-1.19-2.11-2.11s-.77-2.02-.77-3.3c0-1.34.3-2.48.9-3.4.6-.92,1.37-1.62,2.32-2.09s1.93-.71,2.95-.71,1.96.22,2.7.67c.74.45,1.31,1.05,1.69,1.81.38.76.58,1.63.58,2.6,0,.46-.05.89-.14,1.27h-6.94c.08,1.26.43,2.2,1.04,2.8.62.6,1.34.9,2.17.9.66,0,1.22-.12,1.68-.37.46-.25.87-.56,1.22-.92l.84.77c-.5.94-1.17,1.65-2.02,2.11-.85.46-1.86.7-3.02.7Zm-.05-11.09c-.45,0-.86.28-1.24.83-.38.55-.59,1.56-.64,3.04h2.04c.58,0,.96-.12,1.16-.35s.3-.62.3-1.16c0-.8-.16-1.39-.48-1.78-.32-.38-.71-.58-1.15-.58Z"/>
        <path class="cls-11" d="m228.79,228.21v-1.13l1.32-.26c.02-.59.02-1.22.02-1.9v-3.17c0-.45,0-.82-.01-1.1,0-.29-.02-.56-.02-.8,0-.25-.02-.53-.04-.85l-1.46-.22v-.94l4.73-1.61.43.26.22,2.83c.34-1.02.81-1.8,1.42-2.32.61-.52,1.21-.78,1.8-.78.53,0,.98.15,1.37.44.38.3.62.74.72,1.33-.02.62-.18,1.11-.5,1.45-.32.34-.72.52-1.2.52-.67,0-1.29-.38-1.85-1.13l-.14-.19c-.35.34-.68.76-.97,1.27s-.51,1.05-.64,1.61v3.34c0,.64,0,1.24.02,1.8l1.9.41v1.13h-7.1Z"/>
      </g>
      <g>
        <path class="cls-11" d="m97.67,371.2v-2.16h6.22v2.16h-6.22Z"/>
        <path class="cls-11" d="m115.51,361.74v-1.3h12.41l.17,4.13h-1.99l-.48-2.78h-4.18c-.02.91-.03,1.83-.04,2.76,0,.93-.01,1.86-.01,2.81h2.66l.29-1.87h1.39v5.4h-1.39l-.31-2.11h-2.64c0,1.07,0,2.09.01,3.06,0,.97.02,1.92.04,2.87l2.14.22v1.3h-8.06v-1.3l1.8-.19c.03-.98.05-1.96.05-2.95v-6.88c0-1-.02-1.99-.05-2.96l-1.8-.19Z"/>
        <path class="cls-11" d="m128.78,376.21v-1.13l1.3-.29c.02-.58.02-1.2.02-1.87v-2.9c0-.66,0-1.2-.01-1.64,0-.44-.03-.9-.06-1.38l-1.49-.22v-.94l5.04-1.61.41.26-.07,3.48v4.96c0,.68,0,1.32.02,1.91l1.2.24v1.13h-6.36Zm3.19-13.75c-.56,0-1.04-.18-1.44-.54-.4-.36-.6-.81-.6-1.36s.2-1.02.6-1.38c.4-.36.88-.54,1.44-.54s1.04.18,1.44.54c.4.36.6.82.6,1.38s-.2,1-.6,1.36c-.4.36-.88.54-1.44.54Z"/>
        <path class="cls-11" d="m136.36,376.21v-1.13l1.32-.26c.02-.61.03-1.22.04-1.82,0-.61.01-1.22.01-1.82v-4.92h-1.56v-1.42l1.61-.19c.13-1.09.34-1.96.64-2.63.3-.66.7-1.26,1.21-1.79.59-.59,1.26-1.02,2-1.28s1.46-.4,2.15-.4,1.28.12,1.82.37.9.69,1.06,1.33c-.02.45-.17.83-.47,1.14s-.72.47-1.26.47c-.4,0-.78-.14-1.13-.41-.35-.27-.7-.7-1.03-1.3l-.19-.29c-.43.45-.73,1.04-.89,1.76-.16.73-.22,1.72-.19,2.99h4.27l1.25-3.38h2.09l-.05,3.38h2.5v1.63h-2.52v6.72c0,.56.12.97.35,1.24.23.26.52.4.88.4.42,0,.86-.18,1.32-.53l.58.58c-.3.61-.74,1.08-1.32,1.42-.58.34-1.3.5-2.18.5-1.09,0-1.94-.26-2.54-.78-.61-.52-.91-1.37-.91-2.56,0-.42,0-.8.01-1.16,0-.36.01-.77.01-1.24v-4.58h-3.67v6.68c0,.58,0,1.17.02,1.76l1.85.38v1.13h-7.06Z"/>
        <path class="cls-11" d="m152.68,376.21v-1.13l1.3-.29c.02-.58.02-1.2.02-1.87v-11.81l-1.49-.24v-1.01l4.97-1.08.38.24-.1,3.36v3.86c.64-.75,1.26-1.28,1.86-1.57.6-.3,1.25-.44,1.96-.44,1.06,0,1.9.34,2.54,1.03.64.69.96,1.72.96,3.1v4.6c0,.66,0,1.29.02,1.88l1.2.24v1.13h-6.31v-1.13l1.25-.26c.02-.59.02-1.22.02-1.88v-4.28c0-.78-.09-1.33-.28-1.63-.18-.3-.52-.46-1.02-.46-.32,0-.66.1-1.03.29s-.74.46-1.1.82v5.27c0,.68,0,1.32.02,1.91l1.13.24v1.13h-6.31Z"/>
        <path class="cls-11" d="m172.75,361.74v-1.3h7.92v1.3l-1.99.19c-.02.98-.03,1.96-.04,2.96s-.01,2-.01,2.99v1.27c0,.86,0,1.78.01,2.75,0,.97.02,1.95.04,2.94h4.15l.65-3.34h1.94l-.24,4.7h-12.43v-1.3l1.8-.19c.03-.98.05-1.93.05-2.87v-6.96c0-1-.02-1.99-.05-2.96l-1.8-.19Z"/>
        <path class="cls-11" d="m195.83,376.55c-1.39,0-2.27-.58-2.64-1.73-.51.54-1,.97-1.48,1.28s-1.12.47-1.96.47c-.93,0-1.68-.26-2.27-.79-.58-.53-.88-1.29-.88-2.28,0-.58.13-1.1.38-1.56.26-.46.72-.9,1.39-1.3.67-.4,1.62-.78,2.86-1.13.24-.08.52-.16.84-.24s.65-.16.98-.24v-.79c0-1.07-.13-1.8-.4-2.18-.26-.38-.78-.58-1.55-.58h-.31c-.1,0-.21,0-.34.02l-.12,1.06c-.02.78-.2,1.35-.54,1.7-.34.35-.75.53-1.21.53-.88,0-1.42-.4-1.61-1.2.06-.99.57-1.8,1.51-2.42s2.28-.94,4.01-.94c1.54,0,2.64.35,3.3,1.06.66.7,1,1.86,1,3.48v5.38c0,.46.18.7.53.7.13,0,.25-.04.36-.11.11-.07.23-.21.36-.42l.65.43c-.29.64-.66,1.1-1.12,1.38s-1.04.42-1.76.42Zm-5.66-3.67c0,.59.14,1.03.42,1.32s.62.43,1.02.43c.18,0,.36-.04.55-.12.19-.08.5-.26.91-.55v-3.89c-.21.06-.41.13-.61.2-.2.07-.37.14-.52.2-.54.22-.98.54-1.3.95-.32.41-.48.89-.48,1.45Z"/>
        <path class="cls-11" d="m206.42,365.65v-1.03h4.51v1.03l-1.37.24-4.37,11.3c-.59,1.54-1.21,2.7-1.85,3.5-.64.8-1.52,1.2-2.64,1.2-.64,0-1.2-.18-1.69-.53-.49-.35-.75-.78-.78-1.27.1-.53.33-.92.71-1.18.38-.26.79-.38,1.26-.38.32,0,.66.07,1.03.2.37.14.71.44,1.03.92l.17.24c.7-.75,1.25-1.67,1.63-2.76v-.02l-4.78-11.28-1.13-.19v-1.03h6.82v1.03l-1.61.29,2.35,6.48,2.28-6.48-1.58-.29Z"/>
        <path class="cls-11" d="m217.05,376.57c-1.17,0-2.2-.24-3.1-.73-.9-.49-1.6-1.19-2.11-2.11s-.77-2.02-.77-3.3c0-1.34.3-2.48.9-3.4.6-.92,1.37-1.62,2.32-2.09s1.93-.71,2.95-.71,1.96.22,2.7.67c.74.45,1.31,1.05,1.69,1.81.38.76.58,1.63.58,2.6,0,.46-.05.89-.14,1.27h-6.94c.08,1.26.43,2.2,1.04,2.8.62.6,1.34.9,2.17.9.66,0,1.22-.12,1.68-.37.46-.25.87-.56,1.22-.92l.84.77c-.5.94-1.17,1.65-2.02,2.11-.85.46-1.86.7-3.02.7Zm-.05-11.09c-.45,0-.86.28-1.24.83-.38.55-.59,1.56-.64,3.04h2.04c.58,0,.96-.12,1.16-.35s.3-.62.3-1.16c0-.8-.16-1.39-.48-1.78-.32-.38-.71-.58-1.15-.58Z"/>
        <path class="cls-11" d="m223.53,376.21v-1.13l1.32-.26c.02-.59.02-1.22.02-1.9v-3.17c0-.45,0-.82-.01-1.1,0-.29-.02-.56-.02-.8,0-.25-.02-.53-.04-.85l-1.46-.22v-.94l4.73-1.61.43.26.22,2.83c.34-1.02.81-1.8,1.42-2.32.61-.52,1.21-.78,1.8-.78.53,0,.98.15,1.37.44.38.3.62.74.72,1.33-.02.62-.18,1.11-.5,1.45-.32.34-.72.52-1.2.52-.67,0-1.29-.38-1.85-1.13l-.14-.19c-.35.34-.68.76-.97,1.27s-.51,1.05-.64,1.61v3.34c0,.64,0,1.24.02,1.8l1.9.41v1.13h-7.1Z"/>
      </g>
      <g>
        <path class="cls-11" d="m86.03,295.7v-2.16h6.22v2.16h-6.22Z"/>
        <path class="cls-11" d="m103.87,286.24v-1.3h12.41l.17,4.13h-1.99l-.48-2.78h-4.18c-.02.91-.03,1.83-.04,2.76,0,.93-.01,1.86-.01,2.81h2.66l.29-1.87h1.39v5.4h-1.39l-.31-2.11h-2.64c0,1.07,0,2.09.01,3.06,0,.97.02,1.92.04,2.87l2.14.22v1.3h-8.06v-1.3l1.8-.19c.03-.98.05-1.96.05-2.95v-6.88c0-1-.02-1.99-.05-2.96l-1.8-.19Z"/>
        <path class="cls-11" d="m122.49,301.07c-1.25,0-2.33-.26-3.24-.78-.91-.52-1.62-1.25-2.11-2.18-.5-.94-.74-2.02-.74-3.25s.27-2.3.8-3.22c.54-.91,1.27-1.62,2.2-2.14.93-.51,1.96-.77,3.1-.77s2.16.25,3.08.74c.92.5,1.65,1.2,2.2,2.12s.82,2,.82,3.25-.25,2.34-.74,3.26-1.2,1.65-2.11,2.17c-.91.52-1.99.78-3.24.78Zm0-1.25c.67,0,1.18-.39,1.51-1.18.34-.78.5-2.02.5-3.72s-.17-2.96-.5-3.74c-.34-.78-.84-1.18-1.51-1.18s-1.2.39-1.54,1.18c-.34.78-.5,2.03-.5,3.74s.17,2.94.5,3.72c.34.78.85,1.18,1.54,1.18Z"/>
        <path class="cls-11" d="m138.35,300.98l-.14-2.02c-.51.67-1.1,1.19-1.75,1.56-.66.37-1.37.55-2.14.55-1.02,0-1.85-.32-2.47-.97s-.93-1.76-.91-3.35l.1-5.86-1.39-.31v-1.01l4.9-.7.38.26-.12,3.38v4.25c0,.74.12,1.25.35,1.54.23.29.55.43.95.43.34,0,.68-.1,1.04-.31s.7-.46,1.02-.77l.1-6.79-1.32-.29v-.94l4.78-.77.38.26-.07,3.38v6.82l1.25.26v1.13l-4.92.24Z"/>
        <path class="cls-11" d="m144.4,300.71v-1.13l1.32-.26c.02-.59.02-1.22.02-1.9v-3.17c0-.45,0-.82-.01-1.1,0-.29-.02-.56-.02-.8,0-.25-.02-.53-.04-.85l-1.46-.22v-.94l4.73-1.61.43.26.22,2.83c.34-1.02.81-1.8,1.42-2.32.61-.52,1.21-.78,1.8-.78.53,0,.98.15,1.37.44.38.3.62.74.72,1.33-.02.62-.18,1.11-.5,1.45-.32.34-.72.52-1.2.52-.67,0-1.29-.38-1.85-1.13l-.14-.19c-.35.34-.68.76-.97,1.27s-.51,1.05-.64,1.61v3.34c0,.64,0,1.24.02,1.8l1.9.41v1.13h-7.1Z"/>
        <path class="cls-11" d="m160.29,301.07c-1.07,0-1.91-.26-2.52-.78-.61-.52-.91-1.37-.91-2.56,0-.42,0-.8.01-1.16,0-.36.01-.77.01-1.24v-4.58h-1.56v-1.42l1.78-.24,1.2-3.36h2.45l-.05,3.38h2.52v1.63h-2.52v6.72c0,.56.12.97.35,1.24.23.26.52.4.88.4.42,0,.85-.18,1.3-.53l.6.58c-.32.61-.76,1.08-1.33,1.42-.57.34-1.3.5-2.2.5Z"/>
        <path class="cls-11" d="m164.32,300.71v-1.13l1.3-.29c.02-.58.02-1.2.02-1.87v-11.81l-1.49-.24v-1.01l4.97-1.08.38.24-.1,3.36v3.86c.64-.75,1.26-1.28,1.86-1.57.6-.3,1.25-.44,1.96-.44,1.06,0,1.9.34,2.54,1.03.64.69.96,1.72.96,3.1v4.6c0,.66,0,1.29.02,1.88l1.2.24v1.13h-6.31v-1.13l1.25-.26c.02-.59.02-1.22.02-1.88v-4.28c0-.78-.09-1.33-.28-1.63-.18-.3-.52-.46-1.02-.46-.32,0-.66.1-1.03.29s-.74.46-1.1.82v5.27c0,.68,0,1.32.02,1.91l1.13.24v1.13h-6.31Z"/>
        <path class="cls-11" d="m184.38,286.24v-1.3h7.92v1.3l-1.99.19c-.02.98-.03,1.96-.04,2.96s-.01,2-.01,2.99v1.27c0,.86,0,1.78.01,2.75,0,.97.02,1.95.04,2.94h4.15l.65-3.34h1.94l-.24,4.7h-12.43v-1.3l1.8-.19c.03-.98.05-1.93.05-2.87v-6.96c0-1-.02-1.99-.05-2.96l-1.8-.19Z"/>
        <path class="cls-11" d="m207.47,301.05c-1.39,0-2.27-.58-2.64-1.73-.51.54-1,.97-1.48,1.28s-1.12.47-1.96.47c-.93,0-1.68-.26-2.27-.79-.58-.53-.88-1.29-.88-2.28,0-.58.13-1.1.38-1.56.26-.46.72-.9,1.39-1.3.67-.4,1.62-.78,2.86-1.13.24-.08.52-.16.84-.24s.65-.16.98-.24v-.79c0-1.07-.13-1.8-.4-2.18-.26-.38-.78-.58-1.55-.58h-.31c-.1,0-.21,0-.34.02l-.12,1.06c-.02.78-.2,1.35-.54,1.7-.34.35-.75.53-1.21.53-.88,0-1.42-.4-1.61-1.2.06-.99.57-1.8,1.51-2.42s2.28-.94,4.01-.94c1.54,0,2.64.35,3.3,1.06.66.7,1,1.86,1,3.48v5.38c0,.46.18.7.53.7.13,0,.25-.04.36-.11.11-.07.23-.21.36-.42l.65.43c-.29.64-.66,1.1-1.12,1.38s-1.04.42-1.76.42Zm-5.66-3.67c0,.59.14,1.03.42,1.32s.62.43,1.02.43c.18,0,.36-.04.55-.12.19-.08.5-.26.91-.55v-3.89c-.21.06-.41.13-.61.2-.2.07-.37.14-.52.2-.54.22-.98.54-1.3.95-.32.41-.48.89-.48,1.45Z"/>
        <path class="cls-11" d="m218.06,290.15v-1.03h4.51v1.03l-1.37.24-4.37,11.3c-.59,1.54-1.21,2.7-1.85,3.5-.64.8-1.52,1.2-2.64,1.2-.64,0-1.2-.18-1.69-.53-.49-.35-.75-.78-.78-1.27.1-.53.33-.92.71-1.18.38-.26.79-.38,1.26-.38.32,0,.66.07,1.03.2.37.14.71.44,1.03.92l.17.24c.7-.75,1.25-1.67,1.63-2.76v-.02l-4.78-11.28-1.13-.19v-1.03h6.82v1.03l-1.61.29,2.35,6.48,2.28-6.48-1.58-.29Z"/>
        <path class="cls-11" d="m228.69,301.07c-1.17,0-2.2-.24-3.1-.73-.9-.49-1.6-1.19-2.11-2.11s-.77-2.02-.77-3.3c0-1.34.3-2.48.9-3.4.6-.92,1.37-1.62,2.32-2.09s1.93-.71,2.95-.71,1.96.22,2.7.67c.74.45,1.31,1.05,1.69,1.81.38.76.58,1.63.58,2.6,0,.46-.05.89-.14,1.27h-6.94c.08,1.26.43,2.2,1.04,2.8.62.6,1.34.9,2.17.9.66,0,1.22-.12,1.68-.37.46-.25.87-.56,1.22-.92l.84.77c-.5.94-1.17,1.65-2.02,2.11-.85.46-1.86.7-3.02.7Zm-.05-11.09c-.45,0-.86.28-1.24.83-.38.55-.59,1.56-.64,3.04h2.04c.58,0,.96-.12,1.16-.35s.3-.62.3-1.16c0-.8-.16-1.39-.48-1.78-.32-.38-.71-.58-1.15-.58Z"/>
        <path class="cls-11" d="m235.17,300.71v-1.13l1.32-.26c.02-.59.02-1.22.02-1.9v-3.17c0-.45,0-.82-.01-1.1,0-.29-.02-.56-.02-.8,0-.25-.02-.53-.04-.85l-1.46-.22v-.94l4.73-1.61.43.26.22,2.83c.34-1.02.81-1.8,1.42-2.32.61-.52,1.21-.78,1.8-.78.53,0,.98.15,1.37.44.38.3.62.74.72,1.33-.02.62-.18,1.11-.5,1.45-.32.34-.72.52-1.2.52-.67,0-1.29-.38-1.85-1.13l-.14-.19c-.35.34-.68.76-.97,1.27s-.51,1.05-.64,1.61v3.34c0,.64,0,1.24.02,1.8l1.9.41v1.13h-7.1Z"/>
      </g>
      <path class="cls-12" d="m264.65,59.5c14.55.18,25.67,22.61,25.02,46.47-.55,20.45-9.66,38.66-21.83,41.53"/>
      <path class="cls-12" d="m267.92,156.94c11.45.14,20.21,17.8,19.7,36.59-.44,16.1-7.6,30.44-17.19,32.7"/>
      <path class="cls-12" d="m271.59,234.29c10.49.13,18.51,16.3,18.04,33.51-.4,14.74-6.96,27.87-15.74,29.94"/>
      <path class="cls-12" d="m273.42,308.21c9.43.12,16.63,14.65,16.21,30.11-.36,13.25-6.26,25.05-14.14,26.91"/>
      <text class="cls-6" transform="translate(279.76 59.91) rotate(49.95) scale(.96 1)"><tspan x="0" y="0">C</tspan></text>
      <text class="cls-6" transform="translate(284.83 66.01) rotate(61.04) scale(.96 1)"><tspan x="0" y="0">o</tspan></text>
      <text class="cls-6" transform="translate(288.38 72.37) rotate(69.08) scale(.96 1)"><tspan x="0" y="0">n</tspan></text>
      <text class="cls-6" transform="translate(291.17 79.87) rotate(74.47) scale(.96 1)"><tspan x="0" y="0">t</tspan></text>
      <text class="cls-6" transform="translate(292.45 84.31) rotate(78.9) scale(.96 1)"><tspan x="0" y="0">a</tspan></text>
      <text class="cls-6" transform="translate(293.75 91.17) rotate(82.87) scale(.96 1)"><tspan x="0" y="0">i</tspan></text>
      <text class="cls-6" transform="translate(294.34 95.23) rotate(87.13) scale(.96 1)"><tspan x="0" y="0">n</tspan></text>
      <text class="cls-6" transform="translate(294.71 103.29) rotate(91.97) scale(.96 1)"><tspan x="0" y="0">s</tspan></text>
      <text class="cls-6" transform="translate(294.46 109.29) rotate(95.05) scale(.96 1)"><tspan x="0" y="0"> </tspan></text>
      <text class="cls-4" transform="translate(294.23 112.05) rotate(97.44) scale(.96 1)"><tspan x="0" y="0">.</tspan></text>
      <text class="cls-6" transform="translate(293.71 115.95) rotate(99.88) scale(.96 1)"><tspan x="0" y="0"> </tspan></text>
      <text class="cls-2" transform="translate(293.25 118.69) rotate(102.42) scale(.96 1)"><tspan x="0" y="0">.</tspan></text>
      <text class="cls-6" transform="translate(292.39 122.53) rotate(105.07) scale(.96 1)"><tspan x="0" y="0"> </tspan></text>
      <text class="cls-3" transform="translate(291.69 125.22) rotate(107.89) scale(.96 1)"><tspan x="0" y="0">.</tspan></text>
      <text class="cls-6" transform="translate(290.48 128.92) rotate(110.9) scale(.96 1)"><tspan x="0" y="0"> </tspan></text>
      <text class="cls-5" transform="translate(289.52 131.5) rotate(114.22) scale(.96 1)"><tspan x="0" y="0">.</tspan></text>
      <text class="cls-4" transform="translate(278.96 155.24) rotate(44.28) scale(1.02 1)"><tspan x="0" y="0">C</tspan></text>
      <text class="cls-4" transform="translate(284.83 161.04) rotate(59.55) scale(1.02 1)"><tspan x="0" y="0">o</tspan></text>
      <text class="cls-4" transform="translate(288.72 167.6) rotate(70.02) scale(1.02 1)"><tspan x="0" y="0">n</tspan></text>
      <text class="cls-4" transform="translate(291.5 175.55) rotate(76.95) scale(1.02 1)"><tspan x="0" y="0">t</tspan></text>
      <text class="cls-4" transform="translate(292.67 180.27) rotate(82.74) scale(1.02 1)"><tspan x="0" y="0">a</tspan></text>
      <text class="cls-4" transform="translate(293.54 187.54) rotate(88.05) scale(1.02 1)"><tspan x="0" y="0">i</tspan></text>
      <text class="cls-4" transform="translate(293.8 191.81) rotate(93.94) scale(1.02 1)"><tspan x="0" y="0">n</tspan></text>
      <text class="cls-4" transform="translate(293.17 200.25) rotate(100.87) scale(1.02 1)"><tspan x="0" y="0">s</tspan></text>
      <text class="cls-4" transform="translate(291.93 206.42) rotate(105.51) scale(1.02 1)"><tspan x="0" y="0"> </tspan></text>
      <text class="cls-2" transform="translate(291.18 209.21) rotate(109.35) scale(1.02 1)"><tspan x="0" y="0">.</tspan></text>
      <text class="cls-4" transform="translate(289.81 213.07) rotate(113.56) scale(1.02 1)"><tspan x="0" y="0"> </tspan></text>
      <text class="cls-3" transform="translate(288.71 215.7) rotate(118.3) scale(1.02 1)"><tspan x="0" y="0">.</tspan></text>
      <text class="cls-4" transform="translate(286.78 219.24) rotate(123.76) scale(1.02 1)"><tspan x="0" y="0"> </tspan></text>
      <text class="cls-5" transform="translate(285.28 221.59) rotate(130.29) scale(1.02 1)"><tspan x="0" y="0">.</tspan></text>
      <text class="cls-2" transform="translate(284.9 234.19) rotate(53.21)"><tspan x="0" y="0">C</tspan></text>
      <text class="cls-2" transform="translate(289.79 240.82) rotate(66.28)"><tspan x="0" y="0">o</tspan></text>
      <text class="cls-2" transform="translate(292.88 247.75) rotate(75.83)"><tspan x="0" y="0">n</tspan></text>
      <text class="cls-2" transform="translate(294.83 255.84) rotate(82.54)"><tspan x="0" y="0">t</tspan></text>
      <text class="cls-2" transform="translate(295.53 260.62) rotate(88.5)"><tspan x="0" y="0">a</tspan></text>
      <text class="cls-2" transform="translate(295.66 267.85) rotate(94.16)"><tspan x="0" y="0">i</tspan></text>
      <text class="cls-2" transform="translate(295.49 272.05) rotate(100.58)"><tspan x="0" y="0">n</tspan></text>
      <text class="cls-2" transform="translate(293.91 280.27) rotate(108.7)"><tspan x="0" y="0">s</tspan></text>
      <text class="cls-2" transform="translate(291.88 286.06) rotate(114.56)"><tspan x="0" y="0"> </tspan></text>
      <text class="cls-3" transform="translate(290.74 288.65) rotate(119.87)"><tspan x="0" y="0">.</tspan></text>
      <text class="cls-2" transform="translate(288.75 292.08) rotate(126.09)"><tspan x="0" y="0"> </tspan></text>
      <text class="cls-5" transform="translate(287.22 294.31) rotate(133.67)"><tspan x="0" y="0">.</tspan></text>
      <text class="cls-3" transform="translate(281.57 305.46) rotate(46.11) scale(1.15 1)"><tspan x="0" y="0">C</tspan></text>
      <text class="cls-3" transform="translate(287.99 312.22) rotate(63.04) scale(1.15 1)"><tspan x="0" y="0">o</tspan></text>
      <text class="cls-3" transform="translate(291.94 319.85) rotate(75.56) scale(1.15 1)"><tspan x="0" y="0">n</tspan></text>
      <text class="cls-3" transform="translate(294.17 329.04) rotate(84.61) scale(1.15 1)"><tspan x="0" y="0">t</tspan></text>
      <text class="cls-3" transform="translate(294.8 334.43) rotate(92.83) scale(1.15 1)"><tspan x="0" y="0">a</tspan></text>
      <text class="cls-3" transform="translate(294.3 342.61) rotate(100.81) scale(1.15 1)"><tspan x="0" y="0">i</tspan></text>
      <text class="cls-3" transform="translate(293.65 347.29) rotate(110.18) scale(1.15 1)"><tspan x="0" y="0">n</tspan></text>
      <text class="cls-3" transform="translate(290.37 356.08) rotate(123.07) scale(1.15 1)"><tspan x="0" y="0">s</tspan></text>
      <text class="cls-3" transform="translate(286.52 361.78) rotate(133.4) scale(1.15 1)"><tspan x="0" y="0"> </tspan></text>
      <text class="cls-5" transform="translate(284.51 364.06) rotate(143.16) scale(1.15 1)"><tspan x="0" y="0">.</tspan></text>
      <text class="cls-3" transform="translate(281.03 366.66) rotate(154.95) scale(1.15 1)"><tspan x="0" y="0"> </tspan></text>
    </g>
  </g>
</svg>