<?xml version="1.0" encoding="UTF-8"?>
<svg id="Layer_2" data-name="Layer 2" xmlns="http://www.w3.org/2000/svg" viewBox="0 0 508.39 406.09">
  <defs>
    <style>
      .cls-1, .cls-2 {
        fill: #006d77;
      }

      .cls-1, .cls-3 {
        font-family: Roboto-MediumItalic, Roboto;
        font-size: 19.2px;
        font-style: italic;
        font-weight: 500;
      }

      .cls-4 {
        fill: #83c5be;
      }

      .cls-3, .cls-5 {
        fill: #e29578;
      }
    </style>
  </defs>
  <g id="Layer_1-2" data-name="Layer 1">
    <g>
      <g>
        <circle class="cls-4" cx="27.5" cy="78.49" r="27.5"/>
        <circle class="cls-5" cx="97.5" cy="78.49" r="27.5"/>
        <circle class="cls-4" cx="307" cy="78.99" r="27.5"/>
        <circle class="cls-4" cx="237.5" cy="78.49" r="27.5"/>
        <circle class="cls-4" cx="167.5" cy="78.49" r="27.5"/>
        <rect class="cls-2" x="349.5" y="25.49" width="17" height="104"/>
        <text class="cls-1" transform="translate(290.27 35.69)"><tspan x="0" y="0">true</tspan></text>
        <text class="cls-1" transform="translate(220.77 35.69)"><tspan x="0" y="0">true</tspan></text>
        <text class="cls-1" transform="translate(150.77 35.69)"><tspan x="0" y="0">true</tspan></text>
        <text class="cls-1" transform="translate(10.77 35.69)"><tspan x="0" y="0">true</tspan></text>
        <text class="cls-3" transform="translate(76.75 35.69)"><tspan x="0" y="0">false</tspan></text>
        <g>
          <g>
            <path class="cls-2" d="m408.85,75.21l15.71-25.33h7.56l-23.28,35.6h-7.64l4.11-23.81-16.1,23.81h-7.64l6.94-35.6h7.56l-5.75,25.28,16.8-25.28h6.42l-4.71,25.33Z"/>
            <path class="cls-2" d="m437.76,61.91c2.89-2.25,5.81-3.37,8.74-3.37,5.93,0,7.53,3.33,4.79,10l-7.19,16.94h-7.31l7.11-16.75c.64-1.52.78-2.64.42-3.36s-1.33-1.09-2.9-1.09c-2.14,0-4.03.8-5.67,2.4l-7.98,18.8h-7.31l15.94-37.55h7.31l-5.94,13.99Z"/>
            <path class="cls-2" d="m463.69,52.18c.45-1.06,1.19-1.93,2.21-2.62s2.17-1.03,3.43-1.03,2.1.34,2.55,1.03.45,1.56,0,2.62-1.21,1.96-2.25,2.64-2.18,1.03-3.41,1.03-2.08-.34-2.54-1.03-.46-1.56,0-2.64Zm-6.37,33.3h-7.33l11.23-26.45h7.33l-11.23,26.45Z"/>
            <path class="cls-2" d="m471.06,85.48h-7.33l15.94-37.55h7.33l-15.94,37.55Z"/>
            <path class="cls-2" d="m489.46,85.97c-4.01,0-6.77-1.19-8.29-3.57-1.51-2.38-1.43-5.55.26-9.51l.29-.68c1.13-2.66,2.67-5.03,4.62-7.13s4.14-3.71,6.57-4.84,4.89-1.7,7.39-1.7c3.74,0,6.21,1.14,7.39,3.42s.88,5.52-.89,9.71l-1.22,2.89h-17.43c-.5,1.73-.37,3.11.37,4.16s2.03,1.56,3.85,1.56c2.82,0,5.43-.99,7.86-2.96l1.94,3.89c-1.73,1.5-3.71,2.67-5.94,3.51s-4.48,1.26-6.76,1.26Zm8.39-21.74c-1.45,0-2.83.47-4.13,1.42-1.31.95-2.46,2.31-3.46,4.08h10.17l.24-.57c.63-1.57.71-2.79.23-3.65-.48-.86-1.49-1.29-3.04-1.29Z"/>
          </g>
          <text class="cls-1" transform="translate(419.94 105.76)"><tspan x="0" y="0">true</tspan></text>
        </g>
      </g>
      <g>
        <circle class="cls-4" cx="268.76" cy="355.09" r="27.5"/>
        <circle class="cls-5" cx="338.76" cy="355.09" r="27.5"/>
        <text class="cls-1" transform="translate(252.03 312.29)"><tspan x="0" y="0">true</tspan></text>
        <text class="cls-3" transform="translate(318.01 312.29)"><tspan x="0" y="0">false</tspan></text>
        <rect class="cls-2" x="349.5" y="302.09" width="17" height="104"/>
        <g>
          <g>
            <path class="cls-2" d="m408.85,351.8l15.71-25.33h7.56l-23.28,35.6h-7.64l4.11-23.81-16.1,23.81h-7.64l6.94-35.6h7.56l-5.75,25.28,16.8-25.28h6.42l-4.71,25.33Z"/>
            <path class="cls-2" d="m437.76,338.5c2.89-2.25,5.81-3.37,8.74-3.37,5.93,0,7.53,3.33,4.79,10l-7.19,16.94h-7.31l7.11-16.75c.64-1.52.78-2.64.42-3.36s-1.33-1.09-2.9-1.09c-2.14,0-4.03.8-5.67,2.4l-7.98,18.8h-7.31l15.94-37.55h7.31l-5.94,13.99Z"/>
            <path class="cls-2" d="m463.69,328.77c.45-1.06,1.19-1.93,2.21-2.62s2.17-1.03,3.43-1.03,2.1.34,2.55,1.03.45,1.56,0,2.62-1.21,1.96-2.25,2.64-2.18,1.03-3.41,1.03-2.08-.34-2.54-1.03-.46-1.56,0-2.64Zm-6.37,33.3h-7.33l11.23-26.45h7.33l-11.23,26.45Z"/>
            <path class="cls-2" d="m471.06,362.07h-7.33l15.94-37.55h7.33l-15.94,37.55Z"/>
            <path class="cls-2" d="m489.46,362.56c-4.01,0-6.77-1.19-8.29-3.57-1.51-2.38-1.43-5.55.26-9.51l.29-.68c1.13-2.66,2.67-5.03,4.62-7.13s4.14-3.71,6.57-4.84,4.89-1.7,7.39-1.7c3.74,0,6.21,1.14,7.39,3.42s.88,5.52-.89,9.71l-1.22,2.89h-17.43c-.5,1.73-.37,3.11.37,4.16s2.03,1.56,3.85,1.56c2.82,0,5.43-.99,7.86-2.96l1.94,3.89c-1.73,1.5-3.71,2.67-5.94,3.51s-4.48,1.26-6.76,1.26Zm8.39-21.74c-1.45,0-2.83.47-4.13,1.42-1.31.95-2.46,2.31-3.46,4.08h10.17l.24-.57c.63-1.57.71-2.79.23-3.65-.48-.86-1.49-1.29-3.04-1.29Z"/>
          </g>
          <text class="cls-1" transform="translate(419.94 382.36)"><tspan x="0" y="0">true</tspan></text>
        </g>
        <g>
          <circle class="cls-4" cx="414.98" cy="309.09" r="9"/>
          <circle class="cls-4" cx="444.98" cy="309.09" r="9"/>
          <circle class="cls-4" cx="474.98" cy="309.09" r="9"/>
        </g>
      </g>
      <g>
        <circle class="cls-4" cx="164.76" cy="208.03" r="27.5"/>
        <circle class="cls-5" cx="234.76" cy="208.03" r="27.5"/>
        <circle class="cls-4" cx="304.76" cy="208.03" r="27.5"/>
        <rect class="cls-2" x="349.5" y="155.03" width="17" height="104"/>
        <text class="cls-1" transform="translate(288.03 165.23)"><tspan x="0" y="0">true</tspan></text>
        <text class="cls-1" transform="translate(148.03 165.23)"><tspan x="0" y="0">true</tspan></text>
        <text class="cls-3" transform="translate(214.01 165.23)"><tspan x="0" y="0">false</tspan></text>
        <g>
          <g>
            <path class="cls-2" d="m408.85,204.75l15.71-25.33h7.56l-23.28,35.6h-7.64l4.11-23.81-16.1,23.81h-7.64l6.94-35.6h7.56l-5.75,25.28,16.8-25.28h6.42l-4.71,25.33Z"/>
            <path class="cls-2" d="m437.76,191.45c2.89-2.25,5.81-3.37,8.74-3.37,5.93,0,7.53,3.33,4.79,10l-7.19,16.94h-7.31l7.11-16.75c.64-1.52.78-2.64.42-3.36s-1.33-1.09-2.9-1.09c-2.14,0-4.03.8-5.67,2.4l-7.98,18.8h-7.31l15.94-37.55h7.31l-5.94,13.99Z"/>
            <path class="cls-2" d="m463.69,181.72c.45-1.06,1.19-1.93,2.21-2.62s2.17-1.03,3.43-1.03,2.1.34,2.55,1.03.45,1.56,0,2.62-1.21,1.96-2.25,2.64-2.18,1.03-3.41,1.03-2.08-.34-2.54-1.03-.46-1.56,0-2.64Zm-6.37,33.3h-7.33l11.23-26.45h7.33l-11.23,26.45Z"/>
            <path class="cls-2" d="m471.06,215.02h-7.33l15.94-37.55h7.33l-15.94,37.55Z"/>
            <path class="cls-2" d="m489.46,215.51c-4.01,0-6.77-1.19-8.29-3.57-1.51-2.38-1.43-5.55.26-9.51l.29-.68c1.13-2.66,2.67-5.03,4.62-7.13s4.14-3.71,6.57-4.84,4.89-1.7,7.39-1.7c3.74,0,6.21,1.14,7.39,3.42s.88,5.52-.89,9.71l-1.22,2.89h-17.43c-.5,1.73-.37,3.11.37,4.16s2.03,1.56,3.85,1.56c2.82,0,5.43-.99,7.86-2.96l1.94,3.89c-1.73,1.5-3.71,2.67-5.94,3.51s-4.48,1.26-6.76,1.26Zm8.39-21.74c-1.45,0-2.83.47-4.13,1.42-1.31.95-2.46,2.31-3.46,4.08h10.17l.24-.57c.63-1.57.71-2.79.23-3.65-.48-.86-1.49-1.29-3.04-1.29Z"/>
          </g>
          <text class="cls-1" transform="translate(419.94 235.3)"><tspan x="0" y="0">true</tspan></text>
        </g>
        <g>
          <circle class="cls-4" cx="429.98" cy="162.03" r="9"/>
          <circle class="cls-4" cx="459.98" cy="162.03" r="9"/>
        </g>
      </g>
    </g>
  </g>
</svg>