<?xml version="1.0" encoding="UTF-8"?>
<svg id="Layer_2" data-name="Layer 2" xmlns="http://www.w3.org/2000/svg" viewBox="0 0 271.73 163.4">
  <defs>
    <style>
      .cls-1 {
        letter-spacing: -.03em;
      }

      .cls-2 {
        font-family: Roboto-MediumItalic, Roboto;
        font-size: 24px;
        font-style: italic;
        font-weight: 500;
      }

      .cls-2, .cls-3, .cls-4 {
        fill: #006d77;
      }

      .cls-3 {
        font-family: Roboto-Bold, Roboto;
        font-size: 60px;
        font-weight: 700;
      }
    </style>
  </defs>
  <g id="Layer_1-2" data-name="Layer 1">
    <g>
      <g>
        <path class="cls-4" d="m10.1,31.65h17.01l-2.09,6.18H0L12.63.51h8.01l-10.54,31.14Z"/>
        <path class="cls-4" d="m32.69,23.7c.93-2.75,2.31-5.2,4.15-7.35s3.99-3.82,6.46-5,5.08-1.77,7.82-1.77c3.9,0,6.7,1.14,8.39,3.43s2.01,5.4.97,9.33l-.59,1.9c-1.44,4.25-3.83,7.67-7.18,10.24-3.35,2.57-7.1,3.86-11.27,3.86s-7.06-1.28-8.68-3.84-1.68-6.05-.19-10.46l.11-.33Zm7.54.53c-.89,2.64-1.06,4.65-.5,6.04s1.8,2.09,3.73,2.09,3.56-.69,5.08-2.07,2.79-3.58,3.81-6.61c.87-2.58,1.03-4.59.46-6.01s-1.81-2.13-3.71-2.13-3.59.71-5.1,2.12-2.77,3.6-3.77,6.56Z"/>
        <path class="cls-4" d="m63.62,23.7c.93-2.75,2.31-5.2,4.15-7.35s3.99-3.82,6.46-5,5.08-1.77,7.82-1.77c3.9,0,6.7,1.14,8.39,3.43s2.01,5.4.97,9.33l-.59,1.9c-1.44,4.25-3.83,7.67-7.18,10.24-3.35,2.57-7.1,3.86-11.27,3.86s-7.06-1.28-8.68-3.84-1.68-6.05-.19-10.46l.11-.33Zm7.54.53c-.89,2.64-1.06,4.65-.5,6.04s1.8,2.09,3.73,2.09,3.56-.69,5.08-2.07,2.79-3.58,3.81-6.61c.87-2.58,1.03-4.59.46-6.01s-1.81-2.13-3.71-2.13-3.59.71-5.1,2.12-2.77,3.6-3.77,6.56Z"/>
        <path class="cls-4" d="m121.6,24.22c-1.45,4.27-3.61,7.69-6.51,10.26s-6.06,3.86-9.49,3.86c-2.92,0-4.95-.97-6.09-2.92l-4.42,13.07h-7.72l13-38.39h7.16l-.65,2.72c2.6-2.15,5.4-3.23,8.41-3.23,3.56,0,5.9,1.26,7.02,3.79s.93,6.01-.57,10.46l-.13.38Zm-7.54-.54c.87-2.58,1.07-4.57.59-5.97s-1.63-2.1-3.44-2.1c-2.42,0-4.39.89-5.9,2.67l-3.84,11.35c.32,1.83,1.7,2.74,4.12,2.74,3.69,0,6.51-2.9,8.47-8.69Z"/>
        <path class="cls-4" d="m173.88,20.01c-1.24,3.67-3.01,6.89-5.3,9.66s-4.95,4.9-7.98,6.41-6.17,2.26-9.43,2.26-5.85-.74-7.87-2.23-3.27-3.61-3.72-6.37c-.45-2.76-.08-5.93,1.11-9.52l.62-1.85c1.24-3.67,3.03-6.91,5.35-9.7s5-4.94,8.03-6.43,6.16-2.24,9.4-2.24,5.87.75,7.88,2.24,3.24,3.64,3.67,6.43c.43,2.79.03,6.02-1.2,9.67l-.56,1.67Zm-7.55-1.69c1.32-3.91,1.6-6.88.83-8.92s-2.51-3.05-5.22-3.05-5.1,1-7.24,3.01c-2.14,2.01-3.87,4.95-5.21,8.83l-.62,1.82c-1.29,3.81-1.56,6.77-.81,8.87s2.49,3.15,5.24,3.15,5.1-1.01,7.22-3.04,3.86-4.98,5.19-8.85l.62-1.82Z"/>
        <path class="cls-4" d="m187.05,28.78l11.69-18.68h8.07l-19.14,27.73h-7.37l-.36-27.73h8.07l-.96,18.68Z"/>
        <path class="cls-4" d="m213.94,38.34c-4.24,0-7.27-1.25-9.08-3.74s-2.02-5.82-.62-9.97l.24-.72c.94-2.78,2.35-5.27,4.21-7.47s4.03-3.89,6.49-5.07,5.01-1.78,7.64-1.78c3.95,0,6.66,1.2,8.12,3.59s1.45,5.78-.04,10.17l-1.02,3.02h-18.4c-.36,1.81-.1,3.26.78,4.36s2.29,1.64,4.21,1.64c2.97,0,5.65-1.03,8.02-3.1l2.41,4.07c-1.69,1.57-3.67,2.8-5.95,3.68s-4.61,1.32-7.02,1.32Zm6.83-22.78c-1.53,0-2.94.5-4.23,1.49-1.29,1-2.38,2.42-3.28,4.27h10.74l.2-.59c.52-1.65.49-2.92-.1-3.82-.59-.9-1.7-1.35-3.34-1.35Z"/>
        <path class="cls-4" d="m253.66,17.04c-1-.14-1.91-.21-2.71-.21-2.92,0-5.16.95-6.71,2.84l-6.14,18.14h-7.72l9.39-27.73h7.29l-.91,3.31c2.41-2.55,4.99-3.82,7.73-3.82.85,0,1.62.11,2.29.33l-2.52,7.12Z"/>
        <path class="cls-4" d="m257.49,30.42c1.3,0,2.22.37,2.77,1.1s.62,1.67.23,2.82-1.09,2.06-2.13,2.79-2.21,1.1-3.51,1.1-2.2-.37-2.74-1.1-.62-1.67-.24-2.79,1.09-2.06,2.14-2.81,2.21-1.11,3.49-1.11Zm4.58-4.05h-6.41l7.85-25.86h8.23l-9.66,25.86Z"/>
      </g>
      <text class="cls-2" transform="translate(59.77 79.79)"><tspan class="cls-1" x="0" y="0">Y</tspan><tspan x="13.55" y="0">our Repeats: </tspan></text>
      <text class="cls-3" transform="translate(118.65 147.14)"><tspan x="0" y="0">3</tspan></text>
    </g>
  </g>
</svg>